<svg fill="none" height="1024" viewBox="0 0 1024 1024" width="1024" xmlns="http://www.w3.org/2000/svg"><path d="m565.381 127.013c-17.861-31.0313-26.811-46.5471-38.476-51.7452-10.189-4.5484-21.814-4.5484-32.004-.0197-11.684 5.1982-20.634 20.6942-38.554 51.7059l-277.256 480.004c-17.901 31.012-26.87 46.508-25.533 59.228 1.161 11.105 6.964 21.186 15.992 27.763 10.327 7.522 28.228 7.541 64.008 7.561l99.573.059c13.238 0 19.867 0 25.788-1.91 5.252-1.693 10.071-4.489 14.182-8.171 4.623-4.175 7.947-9.904 14.576-21.384l101.854-176.344c.59-1.024 1.24-1.989 1.928-2.875 10.366-13.33 31.552-12.365 40.344 2.895l120.502 209.226c1.082 1.871 1.869 3.801 2.4 5.73 4.17 14.965-6.924 30.914-23.565 30.894l-199.578-.138c-13.238 0-19.867 0-25.788 1.91-5.252 1.693-10.071 4.489-14.182 8.171-4.623 4.175-7.947 9.904-14.576 21.384l-49.845 86.282c-17.901 31.011-26.87 46.507-25.533 59.227 1.161 11.105 6.964 21.187 15.992 27.763 10.327 7.522 28.228 7.541 64.008 7.561l550.048.355c35.781.019 53.661.039 64.008-7.483 9.026-6.556 14.856-16.638 16.016-27.723 1.33-12.72-7.6-28.236-25.458-59.267z" fill="#000"/></svg>