<svg fill="none" height="1024" viewBox="0 0 1024 1024" width="1024" xmlns="http://www.w3.org/2000/svg"><g fill="#000"><path d="m556.876 69.2388c-15.015-26.0863-22.539-39.1294-32.344-43.4992-8.566-3.8235-18.339-3.8235-26.904-.0165-9.822 4.3697-17.346 17.3963-32.41 43.466l-233.073 403.5099c-15.047 26.069-22.587 39.096-21.463 49.789.976 9.335 5.854 17.81 13.444 23.338 8.681 6.323 23.729 6.34 53.807 6.356l83.704.05c11.129 0 16.702 0 21.679-1.606 4.415-1.423 8.466-3.774 11.922-6.869 3.886-3.509 6.681-8.326 12.253-17.976l85.623-148.241c.496-.861 1.041-1.672 1.62-2.417 8.714-11.205 26.523-10.394 33.915 2.434l101.298 175.883c.91 1.573 1.571 3.195 2.018 4.817 3.505 12.58-5.821 25.987-19.81 25.97l-167.772-.116c-11.129 0-16.702 0-21.679 1.606-4.415 1.423-8.466 3.774-11.922 6.869-3.886 3.509-6.681 8.326-12.253 17.976l-41.902 72.532c-15.048 26.069-22.588 39.096-21.463 49.789.975 9.335 5.853 17.81 13.443 23.338 8.681 6.323 23.729 6.34 53.808 6.356l462.39.298c30.079.017 45.11.033 53.808-6.29 7.59-5.512 12.484-13.986 13.46-23.305 1.124-10.693-6.383-23.736-21.397-49.822z"/><path clip-rule="evenodd" d="m12.6514 999.998c-2.3364 0-3.91625-2.384-3.0066-4.536l61.1028-144.617c.5107-1.209 1.695-1.995 3.0066-1.995h35.7468c1.311 0 2.496.786 3.006 1.995l61.103 144.617c.91 2.152-.67 4.536-3.006 4.536h-37.458c-1.327 0-2.521-.803-3.023-2.031l-9.272-22.736c-.501-1.229-1.695-2.032-3.022-2.032h-53.4582c-1.3347 0-2.535.813-3.0307 2.053l-9.0737 22.694c-.4957 1.24-1.6959 2.052-3.0306 2.052zm63.4987-63.643c-.8508 2.144.7281 4.471 3.0338 4.471h24.0521c2.3 0 3.879-2.316 3.039-4.458l-11.9493-30.5c-1.0808-2.758-4.98-2.767-6.0728-.013z" fill-rule="evenodd"/><path d="m277.236 1002.79c-42.647 0-69.434-21.658-69.434-68.611v-80.991c0-1.804 1.461-3.266 3.264-3.266h35.689c1.803 0 3.264 1.462 3.264 3.266v80.134c0 21.654 10.93 31.945 27.645 31.945 16.716 0 27.645-9.863 27.645-30.873v-81.206c0-1.804 1.462-3.266 3.265-3.266h35.689c1.803 0 3.264 1.462 3.264 3.266v79.919c0 48.454-27.645 69.683-70.291 69.683z"/><path clip-rule="evenodd" d="m401.112 999.998c-1.803 0-3.264-1.462-3.264-3.265v-143.545c0-1.804 1.461-3.266 3.264-3.266h54.598c53.576 0 84.65 30.873 84.65 74.181v.429c0 43.307-31.503 75.466-85.507 75.466zm38.311-40.141c0 1.804 1.461 3.266 3.264 3.266h13.666c24.859 0 41.36-13.722 41.36-37.948v-.429c0-24.012-16.501-37.948-41.36-37.948h-13.666c-1.803 0-3.264 1.462-3.264 3.266z" fill-rule="evenodd"/><path d="m591.552 999.998c-1.802 0-3.264-1.462-3.264-3.265v-143.545c0-1.804 1.462-3.266 3.264-3.266h35.261c1.803 0 3.264 1.462 3.264 3.266v143.545c0 1.803-1.461 3.265-3.264 3.265z"/><path d="m750.762 1002.79c-42.647 0-69.435-21.658-69.435-68.611v-80.991c0-1.804 1.462-3.266 3.265-3.266h35.689c1.803 0 3.264 1.462 3.264 3.266v80.134c0 21.654 10.93 31.945 27.645 31.945 16.716 0 27.645-9.863 27.645-30.873v-81.206c0-1.804 1.462-3.266 3.264-3.266h35.69c1.803 0 3.264 1.462 3.264 3.266v79.919c0 48.454-27.645 69.683-70.291 69.683z"/><path d="m930.307 1002.57c-25.442 0-49.706-7.664-67.901-22.805-1.353-1.126-1.493-3.135-.363-4.486l19.072-22.79c1.138-1.359 3.149-1.557 4.57-.498 14.131 10.529 29.745 16.063 46.122 16.063 11.144 0 17.145-3.859 17.145-10.291v-.429c0-6.217-4.929-9.648-25.288-14.364-31.931-7.29-56.576-16.294-56.576-47.167v-.429c0-27.871 22.073-48.024 58.076-48.024 24.248 0 43.459 6.202 59.29 18.054 1.382 1.035 1.651 2.984.654 4.394l-17.132 24.206c-1.039 1.469-3.067 1.814-4.573.83-12.968-8.469-26.888-12.967-39.31-12.967-10.073 0-15.002 4.288-15.002 9.648v.429c0 6.86 5.144 9.862 25.931 14.579 34.503 7.503 55.933 18.652 55.933 46.737v.429c0 30.659-24.216 48.881-60.648 48.881z"/></g></svg>